<mxfile host="app.diagrams.net" agent="Mozilla/5.0 (Windows NT 10.0; Win64; x64) AppleWebKit/537.36 (KHTML, like Gecko) Chrome/131.0.0.0 Safari/537.36 Edg/131.0.0.0" version="25.0.3">
  <diagram name="Trang-1" id="VWN51ia1VIyE1ZVsrAkr">
    <mxGraphModel dx="1042" dy="565" grid="1" gridSize="10" guides="1" tooltips="1" connect="1" arrows="1" fold="1" page="1" pageScale="1" pageWidth="827" pageHeight="1169" math="0" shadow="0">
      <root>
        <mxCell id="0" />
        <mxCell id="1" parent="0" />
        <mxCell id="keMcC8II-ocv5uxflina-4" value="" style="edgeStyle=orthogonalEdgeStyle;rounded=0;orthogonalLoop=1;jettySize=auto;html=1;" parent="1" source="keMcC8II-ocv5uxflina-1" target="keMcC8II-ocv5uxflina-3" edge="1">
          <mxGeometry relative="1" as="geometry" />
        </mxCell>
        <mxCell id="keMcC8II-ocv5uxflina-1" value="Start" style="strokeWidth=2;html=1;shape=mxgraph.flowchart.start_1;whiteSpace=wrap;" parent="1" vertex="1">
          <mxGeometry x="350" y="160" width="100" height="60" as="geometry" />
        </mxCell>
        <mxCell id="keMcC8II-ocv5uxflina-2" value="End" style="strokeWidth=2;html=1;shape=mxgraph.flowchart.start_1;whiteSpace=wrap;" parent="1" vertex="1">
          <mxGeometry x="350" y="680" width="100" height="60" as="geometry" />
        </mxCell>
        <mxCell id="keMcC8II-ocv5uxflina-6" value="" style="edgeStyle=orthogonalEdgeStyle;rounded=0;orthogonalLoop=1;jettySize=auto;html=1;" parent="1" source="keMcC8II-ocv5uxflina-3" target="keMcC8II-ocv5uxflina-5" edge="1">
          <mxGeometry relative="1" as="geometry" />
        </mxCell>
        <mxCell id="keMcC8II-ocv5uxflina-3" value="Input N" style="shape=parallelogram;html=1;strokeWidth=2;perimeter=parallelogramPerimeter;whiteSpace=wrap;rounded=1;arcSize=12;size=0.23;" parent="1" vertex="1">
          <mxGeometry x="310" y="250" width="180" height="40" as="geometry" />
        </mxCell>
        <mxCell id="2IM64PKIbmAZZYmEViBx-2" value="" style="edgeStyle=orthogonalEdgeStyle;rounded=0;orthogonalLoop=1;jettySize=auto;html=1;" edge="1" parent="1" source="keMcC8II-ocv5uxflina-5" target="2IM64PKIbmAZZYmEViBx-1">
          <mxGeometry relative="1" as="geometry" />
        </mxCell>
        <mxCell id="keMcC8II-ocv5uxflina-5" value="If N &amp;gt; 0" style="strokeWidth=2;html=1;shape=mxgraph.flowchart.decision;whiteSpace=wrap;" parent="1" vertex="1">
          <mxGeometry x="350" y="320" width="100" height="50" as="geometry" />
        </mxCell>
        <mxCell id="keMcC8II-ocv5uxflina-7" value="True" style="text;html=1;align=center;verticalAlign=middle;whiteSpace=wrap;rounded=0;" parent="1" vertex="1">
          <mxGeometry x="330" y="360" width="60" height="30" as="geometry" />
        </mxCell>
        <mxCell id="keMcC8II-ocv5uxflina-8" value="False" style="text;html=1;align=center;verticalAlign=middle;whiteSpace=wrap;rounded=0;" parent="1" vertex="1">
          <mxGeometry x="450" y="310" width="60" height="30" as="geometry" />
        </mxCell>
        <mxCell id="keMcC8II-ocv5uxflina-10" style="edgeStyle=orthogonalEdgeStyle;rounded=0;orthogonalLoop=1;jettySize=auto;html=1;entryX=1;entryY=0.5;entryDx=0;entryDy=0;entryPerimeter=0;" parent="1" source="keMcC8II-ocv5uxflina-5" target="keMcC8II-ocv5uxflina-2" edge="1">
          <mxGeometry relative="1" as="geometry">
            <Array as="points">
              <mxPoint x="700" y="345" />
              <mxPoint x="700" y="710" />
            </Array>
          </mxGeometry>
        </mxCell>
        <mxCell id="2IM64PKIbmAZZYmEViBx-5" value="" style="edgeStyle=orthogonalEdgeStyle;rounded=0;orthogonalLoop=1;jettySize=auto;html=1;" edge="1" parent="1" source="2IM64PKIbmAZZYmEViBx-1" target="2IM64PKIbmAZZYmEViBx-4">
          <mxGeometry relative="1" as="geometry" />
        </mxCell>
        <mxCell id="2IM64PKIbmAZZYmEViBx-1" value="For b = 1,b &amp;lt;=N,b=b+1" style="rounded=0;whiteSpace=wrap;html=1;" vertex="1" parent="1">
          <mxGeometry x="290" y="410" width="220" height="60" as="geometry" />
        </mxCell>
        <mxCell id="2IM64PKIbmAZZYmEViBx-11" value="" style="edgeStyle=orthogonalEdgeStyle;rounded=0;orthogonalLoop=1;jettySize=auto;html=1;" edge="1" parent="1" source="2IM64PKIbmAZZYmEViBx-4" target="2IM64PKIbmAZZYmEViBx-10">
          <mxGeometry relative="1" as="geometry" />
        </mxCell>
        <mxCell id="2IM64PKIbmAZZYmEViBx-4" value="If N % b == 0" style="rhombus;whiteSpace=wrap;html=1;rounded=0;fontStyle=2" vertex="1" parent="1">
          <mxGeometry x="330" y="510" width="140" height="80" as="geometry" />
        </mxCell>
        <mxCell id="2IM64PKIbmAZZYmEViBx-6" value="True" style="text;html=1;align=center;verticalAlign=middle;whiteSpace=wrap;rounded=0;" vertex="1" parent="1">
          <mxGeometry x="450" y="500" width="60" height="30" as="geometry" />
        </mxCell>
        <mxCell id="2IM64PKIbmAZZYmEViBx-7" value="False" style="text;html=1;align=center;verticalAlign=middle;whiteSpace=wrap;rounded=0;" vertex="1" parent="1">
          <mxGeometry x="310" y="490" width="60" height="30" as="geometry" />
        </mxCell>
        <mxCell id="2IM64PKIbmAZZYmEViBx-9" style="edgeStyle=orthogonalEdgeStyle;rounded=0;orthogonalLoop=1;jettySize=auto;html=1;entryX=0;entryY=0.5;entryDx=0;entryDy=0;entryPerimeter=0;" edge="1" parent="1" source="2IM64PKIbmAZZYmEViBx-4" target="keMcC8II-ocv5uxflina-2">
          <mxGeometry relative="1" as="geometry">
            <Array as="points">
              <mxPoint x="270" y="550" />
              <mxPoint x="270" y="710" />
            </Array>
          </mxGeometry>
        </mxCell>
        <mxCell id="2IM64PKIbmAZZYmEViBx-12" style="edgeStyle=orthogonalEdgeStyle;rounded=0;orthogonalLoop=1;jettySize=auto;html=1;entryX=1;entryY=0.5;entryDx=0;entryDy=0;" edge="1" parent="1" source="2IM64PKIbmAZZYmEViBx-10" target="2IM64PKIbmAZZYmEViBx-1">
          <mxGeometry relative="1" as="geometry">
            <Array as="points">
              <mxPoint x="600" y="440" />
            </Array>
          </mxGeometry>
        </mxCell>
        <mxCell id="2IM64PKIbmAZZYmEViBx-10" value="Printf( Uoc cua so nguyen to la b: )" style="whiteSpace=wrap;html=1;rounded=0;fontStyle=2;" vertex="1" parent="1">
          <mxGeometry x="530" y="520" width="120" height="60" as="geometry" />
        </mxCell>
      </root>
    </mxGraphModel>
  </diagram>
</mxfile>
